<svg xmlns="http://www.w3.org/2000/svg">
  <defs>
    <symbol id="icon-logo" viewBox="0 0 42 17" fill="none">
      <path d="M5.276 16.488c1.56 0 2.72-.476 3.556-1.26l-.728-1.064c-.7.616-1.568.952-2.604.952-2.044 0-3.472-1.484-3.472-3.864 0-2.38 1.428-3.864 3.472-3.864 1.036 0 1.904.336 2.604.952l.728-1.064c-.836-.784-1.996-1.26-3.556-1.26C2.184 6.016 0 8.312 0 11.252c0 2.94 2.184 5.236 5.276 5.236ZM14.364 16.488c2.38 0 4.06-1.4 4.06-3.36 0-4.032-5.852-2.828-5.852-5.32 0-1.008.812-1.652 2.1-1.652 1.008 0 1.932.392 2.66.98l.644-1.148c-.84-.7-2.016-1.12-3.332-1.12-2.24 0-3.836 1.288-3.836 3.164 0 4.032 5.852 2.744 5.852 5.348 0 1.092-.896 1.736-2.296 1.736-1.232 0-2.38-.504-3.136-1.204l-.7 1.12c.896.896 2.352 1.456 3.836 1.456Z" fill="currentColor"/>
    </symbol>

    <symbol id="icon-menu" viewBox="0 0 28 28" fill="none">
      <path d="M4 7H24M4 14H24M4 21H24" stroke="currentColor" stroke-width="2" stroke-linecap="round"/>
    </symbol>

    <symbol id="icon-close" viewBox="0 0 28 28" fill="none">
      <path d="M7 7L21 21M21 7L7 21" stroke="currentColor" stroke-width="2" stroke-linecap="round"/>
    </symbol>

    <symbol id="icon-chevron-left" viewBox="0 0 24 24" fill="none">
      <path d="M15 18L9 12L15 6" stroke="currentColor" stroke-width="2" stroke-linecap="round" stroke-linejoin="round"/>
    </symbol>

    <symbol id="icon-chevron-right" viewBox="0 0 24 24" fill="none">
      <path d="M9 18L15 12L9 6" stroke="currentColor" stroke-width="2" stroke-linecap="round" stroke-linejoin="round"/>
    </symbol>

    <symbol id="icon-trash" viewBox="0 0 14 14" fill="none">
      <path d="M1 3.5H13M11.5 3.5V12C11.5 12.5523 11.0523 13 10.5 13H3.5C2.94772 13 2.5 12.5523 2.5 12V3.5M4.5 3.5V2C4.5 1.44772 4.94772 1 5.5 1H8.5C9.05228 1 9.5 1.44772 9.5 2V3.5" stroke="currentColor" stroke-width="1.5" stroke-linecap="round" stroke-linejoin="round"/>
    </symbol>

    <symbol id="icon-arrow-right" viewBox="0 0 24 24" fill="none">
      <path d="M5 12H19M19 12L12 5M19 12L12 19" stroke="currentColor" stroke-width="2" stroke-linecap="round" stroke-linejoin="round"/>
    </symbol>

    <symbol id="icon-book" viewBox="0 0 24 24" fill="none">
      <path d="M4 19.5A2.5 2.5 0 0 1 6.5 17H20M4 19.5A2.5 2.5 0 0 0 6.5 22H20V2H6.5A2.5 2.5 0 0 0 4 4.5v15Z" stroke="currentColor" stroke-width="2" stroke-linecap="round" stroke-linejoin="round"/>
    </symbol>
  </defs>
</svg>
